<mxfile host="65bd71144e">
    <diagram id="500pnVQfWvlsNwL5orh4" name="Page-1">
        <mxGraphModel dx="1132" dy="1126" grid="0" gridSize="10" guides="1" tooltips="1" connect="1" arrows="1" fold="1" page="1" pageScale="1" pageWidth="583" pageHeight="827" background="#806B6B" math="0" shadow="0">
            <root>
                <mxCell id="0"/>
                <mxCell id="1" parent="0"/>
                <mxCell id="30" value="User" style="swimlane;fontStyle=1;align=center;verticalAlign=top;childLayout=stackLayout;horizontal=1;startSize=26;horizontalStack=0;resizeParent=1;resizeParentMax=0;resizeLast=0;collapsible=1;marginBottom=0;fontColor=#000000;labelBorderColor=#000000;" vertex="1" parent="1">
                    <mxGeometry x="212" y="50" width="160" height="150" as="geometry"/>
                </mxCell>
                <mxCell id="31" value="-id: String {unique}&#10;" style="text;strokeColor=none;fillColor=none;align=left;verticalAlign=top;spacingLeft=4;spacingRight=4;overflow=hidden;rotatable=0;points=[[0,0.5],[1,0.5]];portConstraint=eastwest;fontColor=#000000;labelBorderColor=#000000;" vertex="1" parent="30">
                    <mxGeometry y="26" width="160" height="26" as="geometry"/>
                </mxCell>
                <mxCell id="35" value="-firstName: String" style="text;strokeColor=none;fillColor=none;align=left;verticalAlign=top;spacingLeft=4;spacingRight=4;overflow=hidden;rotatable=0;points=[[0,0.5],[1,0.5]];portConstraint=eastwest;fontColor=#000000;labelBorderColor=#000000;" vertex="1" parent="30">
                    <mxGeometry y="52" width="160" height="26" as="geometry"/>
                </mxCell>
                <mxCell id="36" value="-lastName: String" style="text;strokeColor=none;fillColor=none;align=left;verticalAlign=top;spacingLeft=4;spacingRight=4;overflow=hidden;rotatable=0;points=[[0,0.5],[1,0.5]];portConstraint=eastwest;fontColor=#000000;labelBorderColor=#000000;" vertex="1" parent="30">
                    <mxGeometry y="78" width="160" height="26" as="geometry"/>
                </mxCell>
                <mxCell id="32" value="" style="line;strokeWidth=1;fillColor=none;align=left;verticalAlign=middle;spacingTop=-1;spacingLeft=3;spacingRight=3;rotatable=0;labelPosition=right;points=[];portConstraint=eastwest;strokeColor=inherit;fontColor=#000000;labelBorderColor=#000000;" vertex="1" parent="30">
                    <mxGeometry y="104" width="160" height="16" as="geometry"/>
                </mxCell>
                <mxCell id="33" value="+login()" style="text;strokeColor=none;fillColor=none;align=left;verticalAlign=top;spacingLeft=4;spacingRight=4;overflow=hidden;rotatable=0;points=[[0,0.5],[1,0.5]];portConstraint=eastwest;fontColor=#000000;labelBorderColor=#000000;" vertex="1" parent="30">
                    <mxGeometry y="120" width="160" height="30" as="geometry"/>
                </mxCell>
                <mxCell id="37" value="" style="endArrow=block;endFill=1;html=1;edgeStyle=orthogonalEdgeStyle;align=left;verticalAlign=top;entryX=0.238;entryY=1;entryDx=0;entryDy=0;entryPerimeter=0;exitX=0.5;exitY=0;exitDx=0;exitDy=0;fontColor=#000000;labelBorderColor=#000000;" edge="1" parent="1" source="52" target="33">
                    <mxGeometry x="-1" relative="1" as="geometry">
                        <mxPoint x="110" y="280" as="sourcePoint"/>
                        <mxPoint x="280" y="250" as="targetPoint"/>
                        <Array as="points">
                            <mxPoint x="110" y="250"/>
                            <mxPoint x="250" y="250"/>
                        </Array>
                    </mxGeometry>
                </mxCell>
                <mxCell id="81" value="1" style="edgeLabel;html=1;align=center;verticalAlign=middle;resizable=0;points=[];fontColor=#000000;labelBorderColor=#000000;" vertex="1" connectable="0" parent="37">
                    <mxGeometry x="0.1289" y="4" relative="1" as="geometry">
                        <mxPoint x="-108" y="24" as="offset"/>
                    </mxGeometry>
                </mxCell>
                <mxCell id="82" value="1" style="edgeLabel;html=1;align=center;verticalAlign=middle;resizable=0;points=[];fontColor=#000000;labelBorderColor=#000000;" vertex="1" connectable="0" parent="37">
                    <mxGeometry x="0.442" y="3" relative="1" as="geometry">
                        <mxPoint x="21" y="-27" as="offset"/>
                    </mxGeometry>
                </mxCell>
                <mxCell id="41" value="Course" style="swimlane;fontStyle=1;align=center;verticalAlign=top;childLayout=stackLayout;horizontal=1;startSize=26;horizontalStack=0;resizeParent=1;resizeParentMax=0;resizeLast=0;collapsible=1;marginBottom=0;fontColor=#000000;labelBorderColor=#000000;" vertex="1" parent="1">
                    <mxGeometry x="212" y="510" width="160" height="152" as="geometry"/>
                </mxCell>
                <mxCell id="42" value="+courseId: Int" style="text;strokeColor=none;fillColor=none;align=left;verticalAlign=top;spacingLeft=4;spacingRight=4;overflow=hidden;rotatable=0;points=[[0,0.5],[1,0.5]];portConstraint=eastwest;fontColor=#000000;labelBorderColor=#000000;" vertex="1" parent="41">
                    <mxGeometry y="26" width="160" height="26" as="geometry"/>
                </mxCell>
                <mxCell id="45" value="+courseName: String" style="text;strokeColor=none;fillColor=none;align=left;verticalAlign=top;spacingLeft=4;spacingRight=4;overflow=hidden;rotatable=0;points=[[0,0.5],[1,0.5]];portConstraint=eastwest;fontColor=#000000;labelBorderColor=#000000;" vertex="1" parent="41">
                    <mxGeometry y="52" width="160" height="26" as="geometry"/>
                </mxCell>
                <mxCell id="43" value="" style="line;strokeWidth=1;fillColor=none;align=left;verticalAlign=middle;spacingTop=-1;spacingLeft=3;spacingRight=3;rotatable=0;labelPosition=right;points=[];portConstraint=eastwest;strokeColor=inherit;fontColor=#000000;labelBorderColor=#000000;" vertex="1" parent="41">
                    <mxGeometry y="78" width="160" height="18" as="geometry"/>
                </mxCell>
                <mxCell id="44" value="+returnId(): Int" style="text;strokeColor=none;fillColor=none;align=left;verticalAlign=top;spacingLeft=4;spacingRight=4;overflow=hidden;rotatable=0;points=[[0,0.5],[1,0.5]];portConstraint=eastwest;fontColor=#000000;labelBorderColor=#000000;" vertex="1" parent="41">
                    <mxGeometry y="96" width="160" height="28" as="geometry"/>
                </mxCell>
                <mxCell id="46" value="+returnName(): String" style="text;strokeColor=none;fillColor=none;align=left;verticalAlign=top;spacingLeft=4;spacingRight=4;overflow=hidden;rotatable=0;points=[[0,0.5],[1,0.5]];portConstraint=eastwest;fontColor=#000000;labelBorderColor=#000000;" vertex="1" parent="41">
                    <mxGeometry y="124" width="160" height="28" as="geometry"/>
                </mxCell>
                <mxCell id="47" value="Lecture" style="swimlane;fontStyle=1;align=center;verticalAlign=top;childLayout=stackLayout;horizontal=1;startSize=26;horizontalStack=0;resizeParent=1;resizeParentMax=0;resizeLast=0;collapsible=1;marginBottom=0;" vertex="1" parent="1">
                    <mxGeometry x="410" y="460" width="160" height="86" as="geometry"/>
                </mxCell>
                <mxCell id="48" value="-lectureId: Int {unique}" style="text;strokeColor=none;fillColor=none;align=left;verticalAlign=top;spacingLeft=4;spacingRight=4;overflow=hidden;rotatable=0;points=[[0,0.5],[1,0.5]];portConstraint=eastwest;" vertex="1" parent="47">
                    <mxGeometry y="26" width="160" height="26" as="geometry"/>
                </mxCell>
                <mxCell id="49" value="" style="line;strokeWidth=1;fillColor=none;align=left;verticalAlign=middle;spacingTop=-1;spacingLeft=3;spacingRight=3;rotatable=0;labelPosition=right;points=[];portConstraint=eastwest;strokeColor=inherit;" vertex="1" parent="47">
                    <mxGeometry y="52" width="160" height="8" as="geometry"/>
                </mxCell>
                <mxCell id="50" value="+returnLectureId(): Int" style="text;strokeColor=none;fillColor=none;align=left;verticalAlign=top;spacingLeft=4;spacingRight=4;overflow=hidden;rotatable=0;points=[[0,0.5],[1,0.5]];portConstraint=eastwest;" vertex="1" parent="47">
                    <mxGeometry y="60" width="160" height="26" as="geometry"/>
                </mxCell>
                <mxCell id="52" value="Student" style="swimlane;fontStyle=1;align=center;verticalAlign=top;childLayout=stackLayout;horizontal=1;startSize=26;horizontalStack=0;resizeParent=1;resizeParentMax=0;resizeLast=0;collapsible=1;marginBottom=0;fontColor=#000000;labelBorderColor=#000000;" vertex="1" parent="1">
                    <mxGeometry x="30" y="280" width="160" height="86" as="geometry"/>
                </mxCell>
                <mxCell id="53" value="-courses:Course[*]" style="text;strokeColor=none;fillColor=none;align=left;verticalAlign=top;spacingLeft=4;spacingRight=4;overflow=hidden;rotatable=0;points=[[0,0.5],[1,0.5]];portConstraint=eastwest;fontColor=#000000;labelBorderColor=#000000;" vertex="1" parent="52">
                    <mxGeometry y="26" width="160" height="26" as="geometry"/>
                </mxCell>
                <mxCell id="54" value="" style="line;strokeWidth=1;fillColor=none;align=left;verticalAlign=middle;spacingTop=-1;spacingLeft=3;spacingRight=3;rotatable=0;labelPosition=right;points=[];portConstraint=eastwest;strokeColor=inherit;fontColor=#000000;labelBorderColor=#000000;" vertex="1" parent="52">
                    <mxGeometry y="52" width="160" height="8" as="geometry"/>
                </mxCell>
                <mxCell id="55" value="+register(Course[*])" style="text;strokeColor=none;fillColor=none;align=left;verticalAlign=top;spacingLeft=4;spacingRight=4;overflow=hidden;rotatable=0;points=[[0,0.5],[1,0.5]];portConstraint=eastwest;fontColor=#000000;labelBorderColor=#000000;" vertex="1" parent="52">
                    <mxGeometry y="60" width="160" height="26" as="geometry"/>
                </mxCell>
                <mxCell id="56" value="Lecturer" style="swimlane;fontStyle=1;align=center;verticalAlign=top;childLayout=stackLayout;horizontal=1;startSize=26;horizontalStack=0;resizeParent=1;resizeParentMax=0;resizeLast=0;collapsible=1;marginBottom=0;" vertex="1" parent="1">
                    <mxGeometry x="410" y="280" width="160" height="86" as="geometry"/>
                </mxCell>
                <mxCell id="57" value="-courses:Course[*]" style="text;strokeColor=none;fillColor=none;align=left;verticalAlign=top;spacingLeft=4;spacingRight=4;overflow=hidden;rotatable=0;points=[[0,0.5],[1,0.5]];portConstraint=eastwest;" vertex="1" parent="56">
                    <mxGeometry y="26" width="160" height="26" as="geometry"/>
                </mxCell>
                <mxCell id="58" value="" style="line;strokeWidth=1;fillColor=none;align=left;verticalAlign=middle;spacingTop=-1;spacingLeft=3;spacingRight=3;rotatable=0;labelPosition=right;points=[];portConstraint=eastwest;strokeColor=inherit;" vertex="1" parent="56">
                    <mxGeometry y="52" width="160" height="8" as="geometry"/>
                </mxCell>
                <mxCell id="59" value="+manage(Course[*])" style="text;strokeColor=none;fillColor=none;align=left;verticalAlign=top;spacingLeft=4;spacingRight=4;overflow=hidden;rotatable=0;points=[[0,0.5],[1,0.5]];portConstraint=eastwest;" vertex="1" parent="56">
                    <mxGeometry y="60" width="160" height="26" as="geometry"/>
                </mxCell>
                <mxCell id="60" value="ExerciseGroup" style="swimlane;fontStyle=1;align=center;verticalAlign=top;childLayout=stackLayout;horizontal=1;startSize=26;horizontalStack=0;resizeParent=1;resizeParentMax=0;resizeLast=0;collapsible=1;marginBottom=0;fontColor=#000000;labelBorderColor=#000000;" vertex="1" parent="1">
                    <mxGeometry x="30" y="530" width="160" height="112" as="geometry"/>
                </mxCell>
                <mxCell id="61" value="-id: String {unique}" style="text;strokeColor=none;fillColor=none;align=left;verticalAlign=top;spacingLeft=4;spacingRight=4;overflow=hidden;rotatable=0;points=[[0,0.5],[1,0.5]];portConstraint=eastwest;fontColor=#000000;labelBorderColor=#000000;" vertex="1" parent="60">
                    <mxGeometry y="26" width="160" height="26" as="geometry"/>
                </mxCell>
                <mxCell id="64" value="-maxCapacity: Int" style="text;strokeColor=none;fillColor=none;align=left;verticalAlign=top;spacingLeft=4;spacingRight=4;overflow=hidden;rotatable=0;points=[[0,0.5],[1,0.5]];portConstraint=eastwest;fontColor=#000000;labelBorderColor=#000000;" vertex="1" parent="60">
                    <mxGeometry y="52" width="160" height="26" as="geometry"/>
                </mxCell>
                <mxCell id="65" value="-timeSlot: Int" style="text;strokeColor=none;fillColor=none;align=left;verticalAlign=top;spacingLeft=4;spacingRight=4;overflow=hidden;rotatable=0;points=[[0,0.5],[1,0.5]];portConstraint=eastwest;fontColor=#000000;labelBorderColor=#000000;" vertex="1" parent="60">
                    <mxGeometry y="78" width="160" height="26" as="geometry"/>
                </mxCell>
                <mxCell id="62" value="" style="line;strokeWidth=1;fillColor=none;align=left;verticalAlign=middle;spacingTop=-1;spacingLeft=3;spacingRight=3;rotatable=0;labelPosition=right;points=[];portConstraint=eastwest;strokeColor=inherit;fontColor=#000000;labelBorderColor=#000000;" vertex="1" parent="60">
                    <mxGeometry y="104" width="160" height="8" as="geometry"/>
                </mxCell>
                <mxCell id="68" value="" style="endArrow=none;html=1;edgeStyle=orthogonalEdgeStyle;exitX=0.5;exitY=0;exitDx=0;exitDy=0;entryX=0.515;entryY=1.077;entryDx=0;entryDy=0;entryPerimeter=0;fontColor=#000000;labelBorderColor=#000000;" edge="1" parent="1" source="41" target="59">
                    <mxGeometry relative="1" as="geometry">
                        <mxPoint x="410" y="510" as="sourcePoint"/>
                        <mxPoint x="570" y="510" as="targetPoint"/>
                        <Array as="points">
                            <mxPoint x="292" y="430"/>
                            <mxPoint x="492" y="430"/>
                        </Array>
                    </mxGeometry>
                </mxCell>
                <mxCell id="69" value="0...*" style="edgeLabel;resizable=0;html=1;align=left;verticalAlign=bottom;fontColor=#000000;labelBorderColor=#000000;" connectable="0" vertex="1" parent="68">
                    <mxGeometry x="-1" relative="1" as="geometry"/>
                </mxCell>
                <mxCell id="70" value="1" style="edgeLabel;resizable=0;html=1;align=right;verticalAlign=bottom;fontColor=#000000;labelBorderColor=#000000;" connectable="0" vertex="1" parent="68">
                    <mxGeometry x="1" relative="1" as="geometry">
                        <mxPoint y="22" as="offset"/>
                    </mxGeometry>
                </mxCell>
                <mxCell id="71" value="" style="endArrow=none;html=1;edgeStyle=orthogonalEdgeStyle;exitX=0.495;exitY=1.046;exitDx=0;exitDy=0;exitPerimeter=0;entryX=0.5;entryY=0;entryDx=0;entryDy=0;fontColor=#000000;labelBorderColor=#000000;" edge="1" parent="1" source="55" target="60">
                    <mxGeometry relative="1" as="geometry">
                        <mxPoint x="410" y="510" as="sourcePoint"/>
                        <mxPoint x="570" y="510" as="targetPoint"/>
                        <Array as="points">
                            <mxPoint x="109" y="448"/>
                        </Array>
                    </mxGeometry>
                </mxCell>
                <mxCell id="72" value="0...maxCapacity" style="edgeLabel;resizable=0;html=1;align=left;verticalAlign=bottom;fontColor=#000000;labelBorderColor=#000000;" connectable="0" vertex="1" parent="71">
                    <mxGeometry x="-1" relative="1" as="geometry">
                        <mxPoint y="23" as="offset"/>
                    </mxGeometry>
                </mxCell>
                <mxCell id="73" value="0...*" style="edgeLabel;resizable=0;html=1;align=right;verticalAlign=bottom;fontColor=#000000;labelBorderColor=#000000;" connectable="0" vertex="1" parent="71">
                    <mxGeometry x="1" relative="1" as="geometry"/>
                </mxCell>
                <mxCell id="77" value="0...*" style="endArrow=open;html=1;endSize=12;startArrow=diamondThin;startSize=14;startFill=0;edgeStyle=orthogonalEdgeStyle;align=left;verticalAlign=bottom;exitX=0.5;exitY=1;exitDx=0;exitDy=0;entryX=0.497;entryY=1.129;entryDx=0;entryDy=0;entryPerimeter=0;fontColor=#000000;labelBorderColor=#000000;" edge="1" parent="1" source="60" target="46">
                    <mxGeometry x="-0.8737" y="10" relative="1" as="geometry">
                        <mxPoint x="120" y="720" as="sourcePoint"/>
                        <mxPoint x="280" y="720" as="targetPoint"/>
                        <Array as="points">
                            <mxPoint x="110" y="750"/>
                            <mxPoint x="292" y="750"/>
                        </Array>
                        <mxPoint as="offset"/>
                    </mxGeometry>
                </mxCell>
                <mxCell id="78" value="1" style="edgeLabel;html=1;align=center;verticalAlign=middle;resizable=0;points=[];fontColor=#000000;labelBorderColor=#000000;" vertex="1" connectable="0" parent="77">
                    <mxGeometry x="0.8942" relative="1" as="geometry">
                        <mxPoint x="8" y="4" as="offset"/>
                    </mxGeometry>
                </mxCell>
                <mxCell id="79" value="" style="endArrow=block;endFill=1;html=1;edgeStyle=orthogonalEdgeStyle;align=left;verticalAlign=top;entryX=0.728;entryY=1.053;entryDx=0;entryDy=0;entryPerimeter=0;exitX=0.5;exitY=1;exitDx=0;exitDy=0;fontColor=#000000;labelBorderColor=#000000;" edge="1" parent="1" source="47" target="46">
                    <mxGeometry x="-1" relative="1" as="geometry">
                        <mxPoint x="390" y="690" as="sourcePoint"/>
                        <mxPoint x="550" y="690" as="targetPoint"/>
                        <Array as="points">
                            <mxPoint x="490" y="700"/>
                            <mxPoint x="328" y="700"/>
                        </Array>
                    </mxGeometry>
                </mxCell>
                <mxCell id="87" value="1" style="edgeLabel;html=1;align=center;verticalAlign=middle;resizable=0;points=[];fontColor=#000000;labelBorderColor=#000000;" vertex="1" connectable="0" parent="79">
                    <mxGeometry x="0.8471" y="-2" relative="1" as="geometry">
                        <mxPoint x="10" y="-10" as="offset"/>
                    </mxGeometry>
                </mxCell>
                <mxCell id="88" value="1" style="edgeLabel;html=1;align=center;verticalAlign=middle;resizable=0;points=[];fontColor=#000000;labelBorderColor=#000000;" vertex="1" connectable="0" parent="79">
                    <mxGeometry x="-0.9182" y="2" relative="1" as="geometry">
                        <mxPoint x="8" as="offset"/>
                    </mxGeometry>
                </mxCell>
                <mxCell id="83" value="" style="endArrow=block;endFill=1;html=1;edgeStyle=orthogonalEdgeStyle;align=left;verticalAlign=top;entryX=0.772;entryY=1.08;entryDx=0;entryDy=0;entryPerimeter=0;exitX=0.5;exitY=0;exitDx=0;exitDy=0;fontColor=#000000;labelBorderColor=#000000;" edge="1" parent="1" source="56" target="33">
                    <mxGeometry x="-1" relative="1" as="geometry">
                        <mxPoint x="280" y="290" as="sourcePoint"/>
                        <mxPoint x="440" y="290" as="targetPoint"/>
                        <Array as="points">
                            <mxPoint x="490" y="250"/>
                            <mxPoint x="336" y="250"/>
                        </Array>
                    </mxGeometry>
                </mxCell>
                <mxCell id="84" value="1" style="edgeLabel;resizable=0;html=1;align=left;verticalAlign=bottom;fontColor=#000000;labelBorderColor=#000000;" connectable="0" vertex="1" parent="83">
                    <mxGeometry x="-1" relative="1" as="geometry"/>
                </mxCell>
                <mxCell id="85" value="1" style="edgeLabel;html=1;align=center;verticalAlign=middle;resizable=0;points=[];fontColor=#000000;labelBorderColor=#000000;" vertex="1" connectable="0" parent="83">
                    <mxGeometry x="0.6898" y="2" relative="1" as="geometry">
                        <mxPoint x="7" y="-18" as="offset"/>
                    </mxGeometry>
                </mxCell>
            </root>
        </mxGraphModel>
    </diagram>
</mxfile>